<svg xmlns="http://www.w3.org/2000/svg" height="980" style="display: block;" version="1.1" viewBox="600 500 820 980" width="820">
<path d="M 0 0 L 2048 0 L 2048 2048 L 0 2048 L 0 0 z" fill="rgb(255,255,255)" transform="translate(0,0)"></path>
<path d="M 1003.48 683.524 C 1024.84 683.361 1046.2 683.322 1067.56 683.408 C 1062.96 713.444 1067.16 745.412 1080.41 772.85 L 1080.25 773.792 C 1069.33 795.755 1058.25 822.201 1048.22 844.731 L 998.903 954.538 L 826.168 1338.18 L 1309.81 1338.36 C 1294.82 1373.21 1278.82 1408.29 1263.28 1442.95 L 665.147 1443.01 C 674.593 1419.51 687.519 1392.91 697.936 1369.45 L 769.461 1208.72 L 1003.48 683.524 z" fill="rgb(201,54,24)" transform="translate(0,0)"></path>
<path d="M 1106.3 810.26 L 1106.94 810.274 C 1126.16 833.973 1168.57 855.215 1198.95 857.285 L 1198.86 857.741 C 1195.33 863.989 1189.37 878.875 1186.09 886.179 L 1158 948.63 L 1084.1 1114.71 C 1072 1142.03 1060.15 1170.77 1047.42 1197.63 L 1371.49 1197.58 C 1356.11 1232.65 1339.69 1268.26 1324.89 1303.46 C 1283.95 1304.01 1241.39 1303.39 1200.36 1303.45 L 888.524 1303.46 L 1045.75 947.393 C 1059.02 917.094 1072.46 886.871 1086.07 856.725 C 1091.19 845.333 1102.93 820.977 1106.3 810.26 z" fill="rgb(201,54,24)" transform="translate(0,0)"></path>
<path d="M 1067.56 683.408 C 1071.84 645.411 1093.9 609.606 1123.47 585.862 C 1156.09 559.777 1197.84 547.939 1239.3 553.024 C 1280.54 557.863 1318.14 579 1343.71 611.727 C 1368.95 643.923 1380.21 684.911 1374.95 725.486 C 1369.92 765.386 1349.26 801.66 1317.51 826.343 C 1280.58 854.667 1243.99 861.06 1198.86 857.741 L 1198.95 857.285 C 1168.57 855.215 1126.16 833.973 1106.94 810.274 L 1106.3 810.26 C 1093.46 796.291 1089.83 789.947 1080.25 773.792 L 1080.41 772.85 C 1067.16 745.412 1062.96 713.444 1067.56 683.408 z" fill="rgb(47,82,224)" transform="translate(0,0)"></path>
<path d="M 1164.11 683.028 L 1276.66 683.213 L 1198.95 857.285 C 1168.57 855.215 1126.16 833.973 1106.94 810.274 C 1119.24 782.158 1131.76 754.136 1144.49 726.209 C 1150.46 712.98 1157.64 695.655 1164.11 683.028 z" fill="rgb(22,19,26)" transform="translate(0,0)"></path>
<path d="M 1067.56 683.408 C 1085.2 683.246 1102.85 683.256 1120.49 683.435 C 1106.67 711.495 1093.5 744.149 1080.41 772.85 C 1067.16 745.412 1062.96 713.444 1067.56 683.408 z" fill="rgb(22,19,26)" transform="translate(0,0)"></path>
<metadata><recraft-signature>{"signed_by": "recraft", "signature_b64": "80OmcrQCSy3MhPeRSzHOEqf5xxx5xGIvG5bItYxYnPnQhPq4822GbVXNLHFn7SPTtJ5XanR5qI+gAGnXBpo3BA==", "signing_algo": "Ed25519", "generation_timestamp": 1785344247, "identifier": "c080a7b0-efda-4a99-b229-10891c524666"}</recraft-signature></metadata></svg>
